<?xml version="1.0" encoding="UTF-8"?>
<svg version="1.1" xmlns="http://www.w3.org/2000/svg" width="1042" height="1042">
<path d="M0 0 C343.86 0 687.72 0 1042 0 C1042 343.86 1042 687.72 1042 1042 C698.14 1042 354.28 1042 0 1042 C0 698.14 0 354.28 0 0 Z " fill="#FEFEFE" transform="translate(0,0)"/>
<path d="M0 0 C76.6855315 0 76.6855315 0 91.484375 14.23828125 C102.2571263 26.7602164 105.32193045 41.61556586 104.22753906 57.71826172 C102.64426802 73.59514065 96.90467416 87.05383423 85 98 C79.34911054 102.23159629 73.92438481 104.71770652 67 106 C76.84947257 120.40392794 87.43746858 134.30611066 97.9375 148.23779297 C108 161.60583523 108 161.60583523 108 163 C103.05677746 163.32415203 98.11985386 163.55839196 93.16845703 163.71411133 C91.48962633 163.77905362 89.81151878 163.86746064 88.13525391 163.98071289 C74.69143709 164.86549059 74.69143709 164.86549059 70.3164978 161.83312988 C66.78680708 158.37587022 64.4381011 154.26305778 62 150 C60.87027083 148.35691131 59.72747006 146.72266067 58.56640625 145.1015625 C57.56182033 143.6115838 56.56050291 142.11939606 55.5625 140.625 C51.12807983 134.06298061 46.59662546 127.59818577 41.86547852 121.24658203 C38.13290068 116.22989096 34.59313364 111.13304806 31 106 C30.67 124.81 30.34 143.62 30 163 C20.1 163 10.2 163 0 163 C0 109.21 0 55.42 0 0 Z " fill="#123657" transform="translate(391,352)"/>
<path d="M0 0 C9.9 0 19.8 0 30 0 C30.33 26.07 30.66 52.14 31 79 C39.88624418 65.27655807 39.88624418 65.27655807 48.6875 51.5 C49.87347394 49.63397222 51.05968166 47.76809299 52.24609375 45.90234375 C52.85437012 44.94569824 53.46264648 43.98905273 54.08935547 43.00341797 C56.09096512 39.85700832 58.09369057 36.7113159 60.09765625 33.56640625 C60.78174561 32.4899585 61.46583496 31.41351074 62.1706543 30.30444336 C63.55059812 28.15294941 64.94652735 26.0116203 66.35864258 23.88110352 C69.74514063 18.74765076 72.7690181 13.93912305 74.70166016 8.07568359 C76.5498445 4.70772719 78.82258201 2.17527825 82 0 C84.99035271 -0.63067751 87.19032145 -0.90455004 90.171875 -0.8984375 C90.92987396 -0.91810074 91.68787292 -0.93776398 92.46884155 -0.95802307 C100.32827444 -1.09701789 108.16929052 -0.62921887 116 0 C114.41505841 4.17092196 112.4706385 7.33543293 109.8125 10.9375 C105.31668404 17.10738823 100.97701976 23.37260238 96.6875 29.6875 C96.04820557 30.62795166 95.40891113 31.56840332 94.75024414 32.53735352 C93.45932663 34.43696468 92.16871619 36.33678455 90.87841797 38.23681641 C85.93802148 45.50422055 80.96702648 52.75078371 76 60 C75.47825195 60.76199707 74.95650391 61.52399414 74.41894531 62.30908203 C72.90527602 64.51922781 71.39034885 66.72850555 69.875 68.9375 C69.42543945 69.59411621 68.97587891 70.25073242 68.51269531 70.92724609 C66.40241664 74.00020762 64.26880239 77.04165963 62 80 C63.27242652 82.66148909 64.65600662 85.07233827 66.36328125 87.4765625 C66.83113037 88.137771 67.29897949 88.79897949 67.78100586 89.48022461 C68.28639893 90.18800049 68.79179199 90.89577637 69.3125 91.625 C69.84302979 92.37209229 70.37355957 93.11918457 70.92016602 93.88891602 C76.35853767 101.53356244 81.85438418 109.1367904 87.35888672 116.73388672 C90.61355739 121.22806303 93.86069783 125.72768763 97.10717773 130.2277832 C99.90742857 134.10808837 102.7141504 137.98346804 105.53125 141.8515625 C106.11197266 142.65078125 106.69269531 143.45 107.29101562 144.2734375 C108.39173135 145.78802234 109.49444219 147.30116026 110.59960938 148.8125 C113.94470132 153.42110299 117.04687853 158.13094297 120 163 C107.95414187 165.42389668 93.68621771 167.96722807 82 163 C72.01599692 155.91560916 66.27024384 142.87745233 60.62484741 132.37039185 C55.09766608 122.09766553 48.50431201 112.64459652 41.875 103.0625 C38.28625 97.761875 34.6975 92.46125 31 87 C30.67 112.08 30.34 137.16 30 163 C20.1 163 10.2 163 0 163 C0 109.21 0 55.42 0 0 Z " fill="#123657" transform="translate(31,352)"/>
<path d="M0 0 C0.99 0 1.98 0 3 0 C3.61536621 1.4859668 3.61536621 1.4859668 4.24316406 3.00195312 C18.86669573 38.31001019 33.54481386 73.59527444 48.30136108 108.84796143 C49.42245395 111.52655099 50.54292066 114.20540185 51.66333008 116.88427734 C54.77391491 124.31851726 57.8892405 131.7505214 61.03742981 139.16893005 C62.28056757 142.09838649 63.52032206 145.02926971 64.76004028 147.96017456 C65.60097284 149.943337 66.44768846 151.92395961 67.29467773 153.90454102 C67.78782471 155.07041748 68.28097168 156.23629395 68.7890625 157.4375 C69.21912598 158.44683594 69.64918945 159.45617187 70.09228516 160.49609375 C71 163 71 163 71 166 C60.44 166 49.88 166 39 166 C36.36 158.74 33.72 151.48 31 144 C1.795 143.505 1.795 143.505 -28 143 C-28.99 146.3 -29.98 149.6 -31 153 C-32.65 157.29 -34.3 161.58 -36 166 C-46.89 166 -57.78 166 -69 166 C-64.93184399 154.93053474 -60.58588291 144.02673483 -55.99923706 133.1630249 C-54.42692457 129.43862597 -52.86173952 125.71124283 -51.29594421 121.98410034 C-50.46629931 120.0094491 -49.63630883 118.03494303 -48.8059845 116.06057739 C-44.15894383 105.00880856 -39.54661695 93.94262684 -34.9375 82.875 C-34.52221039 81.87806122 -34.10692078 80.88112244 -33.67904663 79.85397339 C-27.67011253 65.42835737 -21.6732112 50.99776714 -15.6875 36.5625 C-15.3445993 35.73562683 -15.00169861 34.90875366 -14.64840698 34.05682373 C-13.66504364 31.68514237 -12.68209576 29.31328919 -11.69921875 26.94140625 C-11.39128891 26.19896667 -11.08335907 25.4565271 -10.76609802 24.69158936 C-9.1674898 20.83369644 -7.57857286 16.97211548 -6.00244141 13.10498047 C-5.51865776 11.92076759 -5.51865776 11.92076759 -5.02510071 10.71263123 C-4.4096523 9.20493448 -3.79626452 7.69639446 -3.18522644 6.18690491 C-1.11156709 1.11156709 -1.11156709 1.11156709 0 0 Z " fill="#123657" transform="translate(960,349)"/>
<path d="M0 0 C0.99 0 1.98 0 3 0 C3.61536621 1.4859668 3.61536621 1.4859668 4.24316406 3.00195312 C18.86669573 38.31001019 33.54481386 73.59527444 48.30136108 108.84796143 C49.42245395 111.52655099 50.54292066 114.20540185 51.66333008 116.88427734 C54.77391491 124.31851726 57.8892405 131.7505214 61.03742981 139.16893005 C62.28056757 142.09838649 63.52032206 145.02926971 64.76004028 147.96017456 C65.60097284 149.943337 66.44768846 151.92395961 67.29467773 153.90454102 C67.78782471 155.07041748 68.28097168 156.23629395 68.7890625 157.4375 C69.21912598 158.44683594 69.64918945 159.45617187 70.09228516 160.49609375 C71 163 71 163 71 166 C60.44 166 49.88 166 39 166 C36.36 158.74 33.72 151.48 31 144 C1.795 143.505 1.795 143.505 -28 143 C-28.99 146.3 -29.98 149.6 -31 153 C-32.65 157.29 -34.3 161.58 -36 166 C-46.89 166 -57.78 166 -69 166 C-64.93184399 154.93053474 -60.58588291 144.02673483 -55.99923706 133.1630249 C-54.42692457 129.43862597 -52.86173952 125.71124283 -51.29594421 121.98410034 C-50.46629931 120.0094491 -49.63630883 118.03494303 -48.8059845 116.06057739 C-44.15894383 105.00880856 -39.54661695 93.94262684 -34.9375 82.875 C-34.52221039 81.87806122 -34.10692078 80.88112244 -33.67904663 79.85397339 C-27.67011253 65.42835737 -21.6732112 50.99776714 -15.6875 36.5625 C-15.3445993 35.73562683 -15.00169861 34.90875366 -14.64840698 34.05682373 C-13.66504364 31.68514237 -12.68209576 29.31328919 -11.69921875 26.94140625 C-11.39128891 26.19896667 -11.08335907 25.4565271 -10.76609802 24.69158936 C-9.1674898 20.83369644 -7.57857286 16.97211548 -6.00244141 13.10498047 C-5.51865776 11.92076759 -5.51865776 11.92076759 -5.02510071 10.71263123 C-4.4096523 9.20493448 -3.79626452 7.69639446 -3.18522644 6.18690491 C-1.11156709 1.11156709 -1.11156709 1.11156709 0 0 Z " fill="#123657" transform="translate(616,349)"/>
<path d="M0 0 C0.99 0 1.98 0 3 0 C3.61536621 1.4859668 3.61536621 1.4859668 4.24316406 3.00195312 C18.86669573 38.31001019 33.54481386 73.59527444 48.30136108 108.84796143 C49.42245395 111.52655099 50.54292066 114.20540185 51.66333008 116.88427734 C54.77391491 124.31851726 57.8892405 131.7505214 61.03742981 139.16893005 C62.28056757 142.09838649 63.52032206 145.02926971 64.76004028 147.96017456 C65.60097284 149.943337 66.44768846 151.92395961 67.29467773 153.90454102 C67.78782471 155.07041748 68.28097168 156.23629395 68.7890625 157.4375 C69.21912598 158.44683594 69.64918945 159.45617187 70.09228516 160.49609375 C71 163 71 163 71 166 C60.44 166 49.88 166 39 166 C36.36 158.74 33.72 151.48 31 144 C1.795 143.505 1.795 143.505 -28 143 C-28.99 146.3 -29.98 149.6 -31 153 C-32.65 157.29 -34.3 161.58 -36 166 C-46.89 166 -57.78 166 -69 166 C-64.93184399 154.93053474 -60.58588291 144.02673483 -55.99923706 133.1630249 C-54.42692457 129.43862597 -52.86173952 125.71124283 -51.29594421 121.98410034 C-50.46629931 120.0094491 -49.63630883 118.03494303 -48.8059845 116.06057739 C-44.15894383 105.00880856 -39.54661695 93.94262684 -34.9375 82.875 C-34.52221039 81.87806122 -34.10692078 80.88112244 -33.67904663 79.85397339 C-27.67011253 65.42835737 -21.6732112 50.99776714 -15.6875 36.5625 C-15.3445993 35.73562683 -15.00169861 34.90875366 -14.64840698 34.05682373 C-13.66504364 31.68514237 -12.68209576 29.31328919 -11.69921875 26.94140625 C-11.39128891 26.19896667 -11.08335907 25.4565271 -10.76609802 24.69158936 C-9.1674898 20.83369644 -7.57857286 16.97211548 -6.00244141 13.10498047 C-5.51865776 11.92076759 -5.51865776 11.92076759 -5.02510071 10.71263123 C-4.4096523 9.20493448 -3.79626452 7.69639446 -3.18522644 6.18690491 C-1.11156709 1.11156709 -1.11156709 1.11156709 0 0 Z " fill="#123657" transform="translate(260,349)"/>
<path d="M0 0 C0.46148438 0.37511719 0.92296875 0.75023437 1.3984375 1.13671875 C-0.22838715 6.83995459 -2.93354237 11.81685778 -5.7265625 17.01171875 C-6.42845703 18.33042969 -6.42845703 18.33042969 -7.14453125 19.67578125 C-8.2927718 21.83166146 -9.44520153 23.98518652 -10.6015625 26.13671875 C-14.30499705 24.34111412 -17.28905235 22.13076261 -20.50390625 19.57421875 C-28.47144514 14.11415485 -39.3442152 15.25844801 -48.6015625 16.13671875 C-56.58242627 18.07090456 -62.03238595 23.50404312 -66.6015625 30.13671875 C-78.88686001 51.39223348 -77.63130538 76.4871899 -71.72265625 99.5703125 C-68.31691048 110.75654862 -62.92378011 119.96993176 -52.83984375 126.23046875 C-43.54782949 130.58421079 -31.87704269 128.83279793 -22.578125 125.5 C-18.45377057 123.61102402 -14.53787352 121.3870471 -10.6015625 119.13671875 C-8.59107299 122.56818589 -6.59501005 126.00782787 -4.6015625 129.44921875 C-4.02921875 130.42568359 -3.456875 131.40214844 -2.8671875 132.40820312 C-2.32578125 133.34599609 -1.784375 134.28378906 -1.2265625 135.25 C-0.72382812 136.11407471 -0.22109375 136.97814941 0.296875 137.8684082 C1.3984375 140.13671875 1.3984375 140.13671875 1.3984375 143.13671875 C-10.70024336 153.05027664 -25.1658363 156.54324848 -40.4765625 156.44921875 C-41.44255371 156.4435791 -42.40854492 156.43793945 -43.40380859 156.43212891 C-61.58115751 156.1231048 -76.1132901 148.88766702 -88.78515625 135.8984375 C-104.48626888 117.68759537 -108.98943078 94.00539257 -108.8515625 70.63671875 C-108.85929688 69.32574219 -108.86703125 68.01476562 -108.875 66.6640625 C-108.82965674 43.83373161 -103.13100265 22.39085308 -86.9140625 5.69921875 C-63.8160243 -16.81180159 -25.50363025 -20.00976524 0 0 Z " fill="#113657" transform="translate(845.6015625,361.86328125)"/>
<path d="M0 0 C28.12294776 0 28.12294776 0 36.5 6.49609375 C42.62358318 12.63562376 44.04073398 22.06841252 44.3125 30.375 C44.07231698 41.10817865 40.58352444 49.69276117 33.625 57.75 C23.03661986 66.8257544 15.00650179 65 0 65 C0 43.55 0 22.1 0 0 Z " fill="#FBFCFC" transform="translate(421,376)"/>
<path d="M0 0 C5.1470062 2.24250592 9.13958902 6.24303162 11.37890625 11.3984375 C13.44113938 20.03647063 13.1696029 30.10753736 9 38 C6.28265442 42.21657073 3.7467417 44.32985014 -1 46 C-7.85631816 46.9292861 -12.43927712 46.11493493 -18 42 C-23.70087369 35.99097097 -24.34308425 30.50828764 -24.3125 22.5625 C-24.33666992 21.31243164 -24.33666992 21.31243164 -24.36132812 20.03710938 C-24.36607818 14.02829477 -23.51883932 9.67591616 -19.24609375 5.13671875 C-18.64925781 4.65847656 -18.05242187 4.18023438 -17.4375 3.6875 C-16.83808594 3.19636719 -16.23867188 2.70523438 -15.62109375 2.19921875 C-11.01332227 -1.20942184 -5.48424932 -0.70786677 0 0 Z " fill="#173A5B" transform="translate(487,587)"/>
<path d="M0 0 C19 0 19 0 27 5 C31.92183282 12.3196488 32.74672222 18.35484981 32 27 C30.35432456 33.82720213 27.83505066 38.10996622 22 42 C18 44 18 44 0 44 C0 29.48 0 14.96 0 0 Z " fill="#153959" transform="translate(415,588)"/>
<path d="M0 0 C0.66 0 1.32 0 2 0 C2.36351562 1.12535156 2.72703125 2.25070312 3.1015625 3.41015625 C5.9499503 12.14004371 9.00405893 20.6882018 12.484375 29.1875 C16.03500832 37.97601276 19.00399583 47.01198749 22 56 C8.47 56 -5.06 56 -19 56 C-17.25974581 50.19915268 -15.58666723 44.6528514 -13.4765625 39.0234375 C-13.01005615 37.76973731 -12.54367032 36.51599227 -12.07739258 35.26220703 C-11.83953033 34.6259137 -11.60166809 33.98962036 -11.3565979 33.33404541 C-7.24320989 22.31936933 -3.26762561 11.30129077 0 0 Z " fill="#F8F8FA" transform="translate(960,413)"/>
<path d="M0 0 C0.66 0 1.32 0 2 0 C2.36351562 1.12535156 2.72703125 2.25070312 3.1015625 3.41015625 C5.9499503 12.14004371 9.00405893 20.6882018 12.484375 29.1875 C16.03500832 37.97601276 19.00399583 47.01198749 22 56 C8.47 56 -5.06 56 -19 56 C-17.25974581 50.19915268 -15.58666723 44.6528514 -13.4765625 39.0234375 C-13.01005615 37.76973731 -12.54367032 36.51599227 -12.07739258 35.26220703 C-11.83953033 34.6259137 -11.60166809 33.98962036 -11.3565979 33.33404541 C-7.24320989 22.31936933 -3.26762561 11.30129077 0 0 Z " fill="#F8F8FA" transform="translate(616,413)"/>
<path d="M0 0 C0.66 0 1.32 0 2 0 C2.36351562 1.12535156 2.72703125 2.25070312 3.1015625 3.41015625 C5.9499503 12.14004371 9.00405893 20.6882018 12.484375 29.1875 C16.03500832 37.97601276 19.00399583 47.01198749 22 56 C8.47 56 -5.06 56 -19 56 C-17.25974581 50.19915268 -15.58666723 44.6528514 -13.4765625 39.0234375 C-13.01005615 37.76973731 -12.54367032 36.51599227 -12.07739258 35.26220703 C-11.83953033 34.6259137 -11.60166809 33.98962036 -11.3565979 33.33404541 C-7.24320989 22.31936933 -3.26762561 11.30129077 0 0 Z " fill="#F8F8FA" transform="translate(260,413)"/>
<path d="M0 0 C3.00197464 1.80118478 4.45166366 2.90332732 6 6 C6.70625081 10.95384496 6.58825121 14.7889483 3.625 18.9375 C2.16329955 20.74539266 0.64671984 22.35328016 -1 24 C0.98 26.31 2.96 28.62 5 31 C5.99 28.69 6.98 26.38 8 24 C12.75 25.875 12.75 25.875 15 27 C14.39301257 31.12751449 12.96189209 34.3321148 11 38 C12.485 39.98 12.485 39.98 14 42 C12.1875 44 12.1875 44 10 46 C7 46 7 46 5.3125 44.5 C4.879375 44.005 4.44625 43.51 4 43 C3.195625 43.495 2.39125 43.99 1.5625 44.5 C-2.82101219 46.34568934 -6.30889255 46.76503724 -11 46 C-14.83851372 44.00965955 -17.99742551 41.89389484 -20 38 C-20.56920689 33.6089754 -20.29015343 31.52227617 -18.125 27.625 C-16 25 -16 25 -14 24 C-15.36648454 20.46887952 -15.36648454 20.46887952 -17.125 17.125 C-18.4495215 13.90830494 -18.35646445 11.44582302 -18 8 C-13.56091586 -0.11280895 -8.74221022 -1.07360476 0 0 Z " fill="#193B5C" transform="translate(656,587)"/>
<path d="M0 0 C20 0 20 0 26 4 C29.29168944 8.58553268 28.58170055 14.62824682 28 20 C26.21084915 23.84336109 25.23774979 25.46248384 21.35546875 27.1484375 C20.57816406 27.42945313 19.80085937 27.71046875 19 28 C22.98702 34.1124611 22.98702 34.1124611 27.375 39.9375 C29 42 29 42 29 44 C25.39110936 44.88150356 22.57794797 45.09367428 19 44 C15.33553076 40.02434596 12.66547164 35.68710956 10 31 C9.67 35.29 9.34 39.58 9 44 C6.03 44 3.06 44 0 44 C0 29.48 0 14.96 0 0 Z " fill="#1A3C5D" transform="translate(886,588)"/>
<path d="M0 0 C2.97 0 5.94 0 9 0 C10.00503739 3.2693627 11.00421641 6.54031923 12 9.8125 C12.28617188 10.74126953 12.57234375 11.67003906 12.8671875 12.62695312 C13.13789062 13.51962891 13.40859375 14.41230469 13.6875 15.33203125 C13.93886719 16.15421143 14.19023438 16.9763916 14.44921875 17.82348633 C15 20 15 20 15 23 C15.66 23 16.32 23 17 23 C17.10570312 22.35546875 17.21140625 21.7109375 17.3203125 21.046875 C18.22157731 17.00672241 19.52364219 13.15904967 20.875 9.25 C21.13152344 8.47011719 21.38804687 7.69023438 21.65234375 6.88671875 C22.34325453 4.89036852 23.1633155 2.93977601 24 1 C24.99 0.67 25.98 0.34 27 0 C29.64 7.26 32.28 14.52 35 22 C36.95860488 16.77705366 38.70003247 11.8343663 40.1875 6.5 C40.53167969 5.2728125 40.87585938 4.045625 41.23046875 2.78125 C41.61138672 1.40453125 41.61138672 1.40453125 42 0 C44.97 0 47.94 0 51 0 C50.32282959 5.23434428 48.78794889 9.94176576 47.05859375 14.8984375 C46.77146011 15.73339752 46.48432648 16.56835754 46.18849182 17.42861938 C45.27593061 20.07896759 44.35682097 22.72698991 43.4375 25.375 C42.8153206 27.17823552 42.19357113 28.98161944 41.57226562 30.78515625 C40.05314913 35.19183781 38.52815803 39.59644613 37 44 C36.34 44 35.68 44 35 44 C30.545 32.615 30.545 32.615 26 21 C24.26306335 23.60540498 23.19317977 25.78501252 22.0546875 28.66796875 C21.70019531 29.56064453 21.34570312 30.45332031 20.98046875 31.37304688 C20.61566406 32.30181641 20.25085938 33.23058594 19.875 34.1875 C19.50246094 35.12787109 19.12992188 36.06824219 18.74609375 37.03710938 C17.82761299 39.35686205 16.91237829 41.6778419 16 44 C15.34 44 14.68 44 14 44 C12.00033137 38.21790344 10.00666021 32.43378769 8.01855469 26.64770508 C7.34117045 24.67903684 6.66214159 22.71093371 5.98144531 20.7434082 C5.00414548 17.91764402 4.03274961 15.08991021 3.0625 12.26171875 C2.75626709 11.38037766 2.45003418 10.49903656 2.13452148 9.59098816 C1.71408569 8.3600518 1.71408569 8.3600518 1.28515625 7.10424805 C1.03644775 6.38254929 0.78773926 5.66085052 0.53149414 4.9172821 C0 3 0 3 0 0 Z " fill="#183B5B" transform="translate(696,588)"/>
<path d="M0 0 C2.97 0 5.94 0 9 0 C10.00503739 3.2693627 11.00421641 6.54031923 12 9.8125 C12.28617188 10.74126953 12.57234375 11.67003906 12.8671875 12.62695312 C13.13789062 13.51962891 13.40859375 14.41230469 13.6875 15.33203125 C13.93886719 16.15421143 14.19023438 16.9763916 14.44921875 17.82348633 C15 20 15 20 15 23 C15.66 23 16.32 23 17 23 C17.10570312 22.35546875 17.21140625 21.7109375 17.3203125 21.046875 C18.22157731 17.00672241 19.52364219 13.15904967 20.875 9.25 C21.13152344 8.47011719 21.38804687 7.69023438 21.65234375 6.88671875 C22.34325453 4.89036852 23.1633155 2.93977601 24 1 C24.99 0.67 25.98 0.34 27 0 C29.64 7.26 32.28 14.52 35 22 C36.95860488 16.77705366 38.70003247 11.8343663 40.1875 6.5 C40.53167969 5.2728125 40.87585938 4.045625 41.23046875 2.78125 C41.61138672 1.40453125 41.61138672 1.40453125 42 0 C44.97 0 47.94 0 51 0 C50.32282959 5.23434428 48.78794889 9.94176576 47.05859375 14.8984375 C46.77146011 15.73339752 46.48432648 16.56835754 46.18849182 17.42861938 C45.27593061 20.07896759 44.35682097 22.72698991 43.4375 25.375 C42.8153206 27.17823552 42.19357113 28.98161944 41.57226562 30.78515625 C40.05314913 35.19183781 38.52815803 39.59644613 37 44 C36.34 44 35.68 44 35 44 C30.545 32.615 30.545 32.615 26 21 C24.26306335 23.60540498 23.19317977 25.78501252 22.0546875 28.66796875 C21.70019531 29.56064453 21.34570312 30.45332031 20.98046875 31.37304688 C20.61566406 32.30181641 20.25085938 33.23058594 19.875 34.1875 C19.50246094 35.12787109 19.12992188 36.06824219 18.74609375 37.03710938 C17.82761299 39.35686205 16.91237829 41.6778419 16 44 C15.34 44 14.68 44 14 44 C12.00033137 38.21790344 10.00666021 32.43378769 8.01855469 26.64770508 C7.34117045 24.67903684 6.66214159 22.71093371 5.98144531 20.7434082 C5.00414548 17.91764402 4.03274961 15.08991021 3.0625 12.26171875 C2.75626709 11.38037766 2.45003418 10.49903656 2.13452148 9.59098816 C1.71408569 8.3600518 1.71408569 8.3600518 1.28515625 7.10424805 C1.03644775 6.38254929 0.78773926 5.66085052 0.53149414 4.9172821 C0 3 0 3 0 0 Z " fill="#183B5B" transform="translate(514,588)"/>
<path d="M0 0 C2.97 0 5.94 0 9 0 C10.00503739 3.2693627 11.00421641 6.54031923 12 9.8125 C12.28617187 10.74126953 12.57234375 11.67003906 12.8671875 12.62695312 C13.13789063 13.51962891 13.40859375 14.41230469 13.6875 15.33203125 C13.93886719 16.15421143 14.19023437 16.9763916 14.44921875 17.82348633 C15 20 15 20 15 23 C15.66 23 16.32 23 17 23 C17.10570312 22.35546875 17.21140625 21.7109375 17.3203125 21.046875 C18.22157731 17.00672241 19.52364219 13.15904967 20.875 9.25 C21.13152344 8.47011719 21.38804687 7.69023438 21.65234375 6.88671875 C22.34325453 4.89036852 23.1633155 2.93977601 24 1 C24.99 0.67 25.98 0.34 27 0 C29.64 7.26 32.28 14.52 35 22 C36.95860488 16.77705366 38.70003247 11.8343663 40.1875 6.5 C40.53167969 5.2728125 40.87585938 4.045625 41.23046875 2.78125 C41.61138672 1.40453125 41.61138672 1.40453125 42 0 C44.97 0 47.94 0 51 0 C50.32282959 5.23434428 48.78794889 9.94176576 47.05859375 14.8984375 C46.77146011 15.73339752 46.48432648 16.56835754 46.18849182 17.42861938 C45.27593061 20.07896759 44.35682097 22.72698991 43.4375 25.375 C42.8153206 27.17823552 42.19357113 28.98161944 41.57226562 30.78515625 C40.05314913 35.19183781 38.52815803 39.59644613 37 44 C36.34 44 35.68 44 35 44 C30.545 32.615 30.545 32.615 26 21 C24.26306335 23.60540498 23.19317977 25.78501252 22.0546875 28.66796875 C21.70019531 29.56064453 21.34570312 30.45332031 20.98046875 31.37304688 C20.61566406 32.30181641 20.25085938 33.23058594 19.875 34.1875 C19.50246094 35.12787109 19.12992187 36.06824219 18.74609375 37.03710938 C17.82761299 39.35686205 16.91237829 41.6778419 16 44 C15.34 44 14.68 44 14 44 C12.00033137 38.21790344 10.00666021 32.43378769 8.01855469 26.64770508 C7.34117045 24.67903684 6.66214159 22.71093371 5.98144531 20.7434082 C5.00414548 17.91764402 4.03274961 15.08991021 3.0625 12.26171875 C2.75626709 11.38037766 2.45003418 10.49903656 2.13452148 9.59098816 C1.71408569 8.3600518 1.71408569 8.3600518 1.28515625 7.10424805 C1.03644775 6.38254929 0.78773926 5.66085052 0.53149414 4.9172821 C0 3 0 3 0 0 Z " fill="#183B5B" transform="translate(262,588)"/>
<path d="M0 0 C20.93991416 0 20.93991416 0 26.84765625 5.8203125 C29.41483419 10.67619484 28.54966781 16.6886032 28 22 C25.79259516 26.9242108 22.84037606 29.62547589 18 32 C14.91387673 32.31315817 12.11598703 32.1888477 9 32 C9 35.96 9 39.92 9 44 C6.03 44 3.06 44 0 44 C0 29.48 0 14.96 0 0 Z " fill="#193B5C" transform="translate(795,588)"/>
<path d="M0 0 C20.93991416 0 20.93991416 0 26.84765625 5.8203125 C29.41483419 10.67619484 28.54966781 16.6886032 28 22 C25.79259516 26.9242108 22.84037606 29.62547589 18 32 C14.91387673 32.31315817 12.11598703 32.1888477 9 32 C9 35.96 9 39.92 9 44 C6.03 44 3.06 44 0 44 C0 29.48 0 14.96 0 0 Z " fill="#193B5C" transform="translate(208,588)"/>
<path d="M0 0 C2.97 0 5.94 0 9 0 C9 5.94 9 11.88 9 18 C13.62 18 18.24 18 23 18 C23 12.06 23 6.12 23 0 C25.97 0 28.94 0 32 0 C32 14.52 32 29.04 32 44 C29.03 44 26.06 44 23 44 C23 37.73 23 31.46 23 25 C18.38 25 13.76 25 9 25 C9 31.27 9 37.54 9 44 C6.03 44 3.06 44 0 44 C0 29.48 0 14.96 0 0 Z " fill="#1D3E5F" transform="translate(124,588)"/>
<path d="M0 0 C0.66 0 1.32 0 2 0 C3.39325954 1.55240341 4.71380128 3.17029985 6 4.8125 C10.12125717 9.9757606 14.43591035 14.84492382 18.93359375 19.6875 C21 22 21 22 23 25 C23.33 17.08 23.66 9.16 24 1 C26.64 1 29.28 1 32 1 C32 15.85 32 30.7 32 46 C31.34 46 30.68 46 30 46 C28.62787699 44.46804728 27.3284554 42.87078919 26.0625 41.25 C22.08281119 36.26082916 17.91055935 31.53780422 13.54321289 26.88574219 C10.09742072 23.19484145 10.09742072 23.19484145 9 21 C8.67 28.92 8.34 36.84 8 45 C5.36 45 2.72 45 0 45 C0 30.15 0 15.3 0 0 Z " fill="#183A5B" transform="translate(361,587)"/>
<path d="M0 0 C7.59 0 15.18 0 23 0 C23 2.31 23 4.62 23 7 C18.05 7 13.1 7 8 7 C8 10.3 8 13.6 8 17 C11.96 17 15.92 17 20 17 C20 19.31 20 21.62 20 24 C16.04 24 12.08 24 8 24 C8 28.29 8 32.58 8 37 C13.61 37 19.22 37 25 37 C25 39.31 25 41.62 25 44 C16.75 44 8.5 44 0 44 C0 29.48 0 14.96 0 0 Z " fill="#143758" transform="translate(841,588)"/>
<path d="M0 0 C0.78375 0.495 1.5675 0.99 2.375 1.5 C1.81128586 4.76954202 0.87537734 6.32575883 -1.625 8.5 C-2.16125 8.17 -2.6975 7.84 -3.25 7.5 C-6.18779717 6.26303277 -8.46654883 6.28943659 -11.625 6.5 C-12.88013771 7.54868917 -12.88013771 7.54868917 -12.90625 9.8828125 C-12.88818841 12.53551583 -12.88818841 12.53551583 -11.15625 14.0546875 C-10.4859375 14.49039063 -9.815625 14.92609375 -9.125 15.375 C-5.99268327 17.53021258 -3.05554464 19.75018533 -0.1875 22.25 C0.47121094 22.82234375 1.12992188 23.3946875 1.80859375 23.984375 C4.18669887 26.28538444 4.36584604 27.38099855 4.625 30.75 C4.2589776 36.24033597 2.82850549 39.18492361 -1.25 42.875 C-6.11289825 45.21639545 -10.51001064 45.47933378 -15.6875 43.8515625 C-17.3677391 43.14446188 -19.00117392 42.32848269 -20.625 41.5 C-21.285 41.17 -21.945 40.84 -22.625 40.5 C-21.75 35.75 -21.75 35.75 -20.625 33.5 C-17.66324877 34.11277612 -16.24441217 34.75372522 -13.625 36.5 C-10.58304573 36.83340471 -10.58304573 36.83340471 -7.625 36.5 C-5.40206005 34.67634188 -5.40206005 34.67634188 -5.2734375 32.0625 C-5.37926842 29.4434221 -5.37926842 29.4434221 -7.1640625 27.875 C-8.19660156 27.194375 -8.19660156 27.194375 -9.25 26.5 C-9.97703125 25.99855469 -10.7040625 25.49710938 -11.453125 24.98046875 C-12.16984375 24.49191406 -12.8865625 24.00335937 -13.625 23.5 C-21.32508718 17.55754141 -21.32508718 17.55754141 -21.9609375 13.1953125 C-22.02580195 8.92723147 -22.06485326 6.25403416 -19.875 2.5 C-14.03268425 -2.69316956 -7.09569009 -2.93614762 0 0 Z " fill="#193B5C" transform="translate(954.625,588.5)"/>
<path d="M0 0 C0.78375 0.495 1.5675 0.99 2.375 1.5 C1.81128586 4.76954202 0.87537734 6.32575883 -1.625 8.5 C-2.16125 8.17 -2.6975 7.84 -3.25 7.5 C-6.18779717 6.26303277 -8.46654883 6.28943659 -11.625 6.5 C-12.88013771 7.54868917 -12.88013771 7.54868917 -12.90625 9.8828125 C-12.88818841 12.53551583 -12.88818841 12.53551583 -11.15625 14.0546875 C-10.4859375 14.49039063 -9.815625 14.92609375 -9.125 15.375 C-5.99268327 17.53021258 -3.05554464 19.75018533 -0.1875 22.25 C0.47121094 22.82234375 1.12992188 23.3946875 1.80859375 23.984375 C4.18669887 26.28538444 4.36584604 27.38099855 4.625 30.75 C4.2589776 36.24033597 2.82850549 39.18492361 -1.25 42.875 C-6.11289825 45.21639545 -10.51001064 45.47933378 -15.6875 43.8515625 C-17.3677391 43.14446188 -19.00117392 42.32848269 -20.625 41.5 C-21.285 41.17 -21.945 40.84 -22.625 40.5 C-21.75 35.75 -21.75 35.75 -20.625 33.5 C-17.66324877 34.11277612 -16.24441217 34.75372522 -13.625 36.5 C-10.58304573 36.83340471 -10.58304573 36.83340471 -7.625 36.5 C-5.40206005 34.67634188 -5.40206005 34.67634188 -5.2734375 32.0625 C-5.37926842 29.4434221 -5.37926842 29.4434221 -7.1640625 27.875 C-8.19660156 27.194375 -8.19660156 27.194375 -9.25 26.5 C-9.97703125 25.99855469 -10.7040625 25.49710938 -11.453125 24.98046875 C-12.16984375 24.49191406 -12.8865625 24.00335937 -13.625 23.5 C-21.32508718 17.55754141 -21.32508718 17.55754141 -21.9609375 13.1953125 C-22.02580195 8.92723147 -22.06485326 6.25403416 -19.875 2.5 C-14.03268425 -2.69316956 -7.09569009 -2.93614762 0 0 Z " fill="#193B5C" transform="translate(602.625,588.5)"/>
<path d="M0 0 C0.78375 0.495 1.5675 0.99 2.375 1.5 C1.81128586 4.76954202 0.87537734 6.32575883 -1.625 8.5 C-2.16125 8.17 -2.6975 7.84 -3.25 7.5 C-6.18779717 6.26303277 -8.46654883 6.28943659 -11.625 6.5 C-12.88013771 7.54868917 -12.88013771 7.54868917 -12.90625 9.8828125 C-12.88818841 12.53551583 -12.88818841 12.53551583 -11.15625 14.0546875 C-10.4859375 14.49039063 -9.815625 14.92609375 -9.125 15.375 C-5.99268327 17.53021258 -3.05554464 19.75018533 -0.1875 22.25 C0.47121094 22.82234375 1.12992188 23.3946875 1.80859375 23.984375 C4.18669887 26.28538444 4.36584604 27.38099855 4.625 30.75 C4.2589776 36.24033597 2.82850549 39.18492361 -1.25 42.875 C-6.11289825 45.21639545 -10.51001064 45.47933378 -15.6875 43.8515625 C-17.3677391 43.14446188 -19.00117392 42.32848269 -20.625 41.5 C-21.285 41.17 -21.945 40.84 -22.625 40.5 C-21.75 35.75 -21.75 35.75 -20.625 33.5 C-17.66324877 34.11277612 -16.24441217 34.75372522 -13.625 36.5 C-10.58304573 36.83340471 -10.58304573 36.83340471 -7.625 36.5 C-5.40206005 34.67634188 -5.40206005 34.67634188 -5.2734375 32.0625 C-5.37926842 29.4434221 -5.37926842 29.4434221 -7.1640625 27.875 C-8.19660156 27.194375 -8.19660156 27.194375 -9.25 26.5 C-9.97703125 25.99855469 -10.7040625 25.49710938 -11.453125 24.98046875 C-12.16984375 24.49191406 -12.8865625 24.00335937 -13.625 23.5 C-21.32508718 17.55754141 -21.32508718 17.55754141 -21.9609375 13.1953125 C-22.02580195 8.92723147 -22.06485326 6.25403416 -19.875 2.5 C-14.03268425 -2.69316956 -7.09569009 -2.93614762 0 0 Z " fill="#193B5C" transform="translate(100.625,588.5)"/>
<path d="M0 0 C3.18485251 1.840137 4.63878472 3.29477017 6.3125 6.5625 C7.98661906 14.9330953 7.80930056 22.68149914 3 30 C-0.51824511 32.34549674 -1.85775694 32.57991403 -6 32 C-10.51031767 28.61726175 -12.01075608 25.4858072 -13 20 C-13.67055601 12.56401283 -12.83204784 7.38967415 -8.75 1.0625 C-5.77389615 -0.74442019 -3.38395012 -0.40840777 0 0 Z " fill="#F9F9FB" transform="translate(484,594)"/>
<path d="M0 0 C9 1 9 1 12 3.375 C16.04271989 8.68106985 15.4557712 14.59434289 15 21 C14.15086924 24.83111754 12.77351038 27.33392162 9.75 29.9375 C7 31 7 31 0 31 C0 20.77 0 10.54 0 0 Z " fill="#F4F4F7" transform="translate(423,594)"/>
<path d="M0 0 C2.64 0 5.28 0 8 0 C8 14.52 8 29.04 8 44 C5.36 44 2.72 44 0 44 C0 29.48 0 14.96 0 0 Z " fill="#123657" transform="translate(764,588)"/>
<path d="M0 0 C2.64 0 5.28 0 8 0 C8 14.52 8 29.04 8 44 C5.36 44 2.72 44 0 44 C0 29.48 0 14.96 0 0 Z " fill="#123657" transform="translate(330,588)"/>
<path d="M0 0 C2.64 0 5.28 0 8 0 C8 14.52 8 29.04 8 44 C5.36 44 2.72 44 0 44 C0 29.48 0 14.96 0 0 Z " fill="#123657" transform="translate(178,588)"/>
<path d="M0 0 C6 0 6 0 8.875 1.375 C11.68577881 4.84713854 11.48379419 7.21358877 11.37109375 11.5625 C10.98283577 14.11274188 10.36700846 15.82057014 9 18 C7 19 7 19 0 19 C0 12.73 0 6.46 0 0 Z " fill="#FAFAFB" transform="translate(804,594)"/>
<path d="M0 0 C6 0 6 0 8.875 1.375 C11.68577881 4.84713854 11.48379419 7.21358877 11.37109375 11.5625 C10.98283577 14.11274188 10.36700846 15.82057014 9 18 C7 19 7 19 0 19 C0 12.73 0 6.46 0 0 Z " fill="#FAFAFB" transform="translate(217,594)"/>
<path d="M0 0 C6 0 6 0 8.875 1.5 C11.33511121 4.39424849 11.62508823 6.26131766 11.34375 10.03125 C10.80764016 13.10169728 10.1899614 14.7416023 8 17 C4.04 17.495 4.04 17.495 0 18 C0 12.06 0 6.12 0 0 Z " fill="#FAFAFB" transform="translate(895,594)"/>
<path d="M0 0 C4.55555556 0.55555556 4.55555556 0.55555556 6 2 C6.4729064 9.21182266 6.4729064 9.21182266 4.5 12.5 C4.005 12.995 3.51 13.49 3 14 C0.62968451 13.0518738 -0.76672508 12.31103322 -2.3125 10.25 C-3.247464 7.19011781 -2.80026509 5.06768286 -2 2 C-1.34 1.34 -0.68 0.68 0 0 Z " fill="#F1F2F5" transform="translate(648,592)"/>
<path d="M0 0 C1.66666667 1.66666667 3.33333333 3.33333333 5 5 C5.763125 5.721875 6.52625 6.44375 7.3125 7.1875 C9 9 9 9 9 11 C6.78704384 12.10647808 5.45327301 12.19588368 3 12.25 C1.948125 12.28867187 1.948125 12.28867187 0.875 12.328125 C0.25625 12.21984375 -0.3625 12.1115625 -1 12 C-3.31282587 8.53076119 -3.42478586 7.07794425 -3 3 C-1.5 1.125 -1.5 1.125 0 0 Z " fill="#F2F3F6" transform="translate(647,614)"/>
</svg>
